# xmcd
#
# Track frame offsets:
#	150
#	18201
#	35344
#	55296
#	70059
#	83567
#	97829
#	116625
#	134329
#	151708
#	168884
#	190808
#	207214
#	222784
#	240023
#	256188
#	273384
#	290958
#	309149
#
# Disc length: 4302 seconds
#
# Revision: 1
# Processed by: cddbd v1.5.2PL0 Copyright (c) Steve Scherf et al.
# Submitted via: audiograbber 1.83.01
#
DISCID=f110cc13
DTITLE=Various Artist - Χρυσες Μπαλαντες 13
DYEAR=2006
DGENRE=
TTITLE0=Christina Aguilera - Beautiful
TTITLE1=Sarah McLachlan - Fallen
TTITLE2=Whitney Houston - I will always love you
TTITLE3=Jem - They
TTITLE4=Live - The river
TTITLE5=Lee Ryan - Turn your car around
TTITLE6=Kelly Clarkson - Breakaway
TTITLE7=Darren Hayes of Savage Garden - So beautiful
TTITLE8=Hooverphonic - You love me to death
TTITLE9=The Rasmus - Sail away
TTITLE10=Eurythmics - Here comes the rain again
TTITLE11=Britney Spears - Someday (I will understand)
TTITLE12=Twoface - We belong
TTITLE13=Backstreet Boys - I still...
TTITLE14=Celine Dion - Je ne vous oublie pas
TTITLE15=Il Divo - Unchained melody (Senza catene)
TTITLE16=Will Young - All time love
TTITLE17=Westlife - You raise me up
TTITLE18=Αννα Βισση - Everything
EXTD=
EXTT0=
EXTT1=
EXTT2=
EXTT3=
EXTT4=
EXTT5=
EXTT6=
EXTT7=
EXTT8=
EXTT9=
EXTT10=
EXTT11=
EXTT12=
EXTT13=
EXTT14=
EXTT15=
EXTT16=
EXTT17=
EXTT18=
PLAYORDER=
